<svg width="290" height="41" viewBox="0 0 290 41" fill="none" xmlns="http://www.w3.org/2000/svg">
<mask id="path-1-inside-1" fill="white">
<path fill-rule="evenodd" clip-rule="evenodd" d="M290 0H0V32C0 34.2091 1.79086 36 4 36H264C265.653 36 266.986 37.3346 268.274 38.6247C269.48 39.8318 270.646 41 272 41C273.354 41 274.519 39.8322 275.724 38.6254C277.013 37.335 278.346 36 280 36H286C288.209 36 290 34.2091 290 32V0Z"/>
</mask>
<path fill-rule="evenodd" clip-rule="evenodd" d="M290 0H0V32C0 34.2091 1.79086 36 4 36H264C265.653 36 266.986 37.3346 268.274 38.6247C269.48 39.8318 270.646 41 272 41C273.354 41 274.519 39.8322 275.724 38.6254C277.013 37.335 278.346 36 280 36H286C288.209 36 290 34.2091 290 32V0Z" fill="#EDEEF0"/>
<path d="M0 0V-1H-1V0H0ZM290 0H291V-1H290V0ZM268.274 38.6247L267.567 39.3313L267.567 39.3314L268.274 38.6247ZM275.724 38.6254L275.017 37.9188L275.017 37.9188L275.724 38.6254ZM0 1H290V-1H0V1ZM1 32V0H-1V32H1ZM4 35C2.34315 35 1 33.6569 1 32H-1C-1 34.7614 1.23858 37 4 37V35ZM264 35H4V37H264V35ZM268.982 37.9181C268.351 37.2866 267.635 36.5652 266.851 36.0117C266.056 35.4505 265.109 35 264 35V37C264.544 37 265.09 37.2168 265.697 37.6454C266.315 38.0817 266.909 38.6727 267.567 39.3313L268.982 37.9181ZM272 40C271.621 40 271.196 39.8379 270.668 39.4551C270.134 39.068 269.599 38.5358 268.982 37.9181L267.567 39.3314C268.155 39.9207 268.806 40.5761 269.495 41.0749C270.19 41.578 271.025 42 272 42V40ZM275.017 37.9188C274.4 38.5365 273.865 39.0684 273.331 39.4554C272.803 39.8379 272.379 40 272 40V42C272.974 42 273.81 41.5782 274.505 41.0751C275.193 40.5765 275.844 39.9211 276.432 39.3319L275.017 37.9188ZM280 35C278.89 35 277.943 35.4505 277.148 36.0119C276.364 36.5656 275.647 37.2872 275.017 37.9188L276.432 39.3319C277.09 38.6731 277.684 38.0821 278.302 37.6457C278.909 37.217 279.455 37 280 37V35ZM286 35H280V37H286V35ZM289 32C289 33.6569 287.657 35 286 35V37C288.761 37 291 34.7614 291 32H289ZM289 0V32H291V0H289Z" fill="#C5D0DB" mask="url(#path-1-inside-1)"/>
</svg>
